<svg height="500" preserveAspectRatio="xMidYMid meet" viewBox="0 0 375 374.999991" width="500" xmlns="http://www.w3.org/2000/svg" xmlns:xlink="http://www.w3.org/1999/xlink" zoomAndPan="magnify"><clipPath id="a"><path d="m12.902344 12.902344h349.5v349.5h-349.5zm0 0"/></clipPath><path d="m-37.5-37.499999h450v449.999989h-450z" fill="#fff"/><path d="m-37.5-37.499999h450v449.999989h-450z" fill="#fff"/><g fill="#38b6ff"><path d="m292.554688 149.195312c3.746093-12.714843.511718-26.199218-8.246094-33.902343-2.1875-1.917969-4.578125-3.34375-7.109375-4.269531.367187-12.160157-3.292969-21.992188-10.632813-28.46875-7.625-6.722657-18.894531-9.332032-31.875-7.414063-4.792968-11.171875-11.890625-18.609375-20.597656-21.5625-8.105469-2.746094-17.480469-1.503906-26.546875 3.492187-11.25-10.726562-21.988281-11.039062-29.117187-9.339843-5.605469 1.335937-11.03125 4.417969-15.902344 8.828125-28.660156-2.554688-53.171875 17.390625-59.957032 35.121094-19.757812 12.992187-30.359374 33.789062-26.410156 51.953124 2.164063 9.929688 10.675782 27.101563 43.265625 32.742188.425781.070312.859375.144531 1.289063.214844.976562 10.539062 5.910156 19.511718 14.347656 26.042968 5.941406 4.597657 13.257812 7.648438 21.375 9.054688 7.515625 1.300781 15.71875 1.171875 24.152344-.433594 1.90625 2.082032 3.945312 4.097656 5.976562 6.101563 11.214844 11.054687 22.808594 22.488281 13.710938 45.3125-.25.636719-.1875 1.355469.171875 1.9375.324219.53125.863281.890625 1.46875.996093.0625.011719.121093.019532.183593.023438l27.21875 2.371094c.703126.058594 1.386719-.222656 1.839844-.761719.457032-.535156.621094-1.257813.441406-1.9375-1.976562-7.625-2.867187-17.183594-2.707031-29.128906 4.078125 2.460937 8.628907 4.164062 13.347657 4.980469 20.882812 3.613281 40.8125-10.433594 44.425781-31.320313.265625-1.527344.433593-3.0625.511719-4.589844 17.316406-6.917969 29.679687-19.398437 32.410156-32.828125 1.753906-8.636718-.675782-16.636718-7.035156-23.214844zm-25.425782 51.378907c-.648437-9.125-4.542968-17.855469-11.140625-24.46875-.84375-.84375-2.214843-.847657-3.0625 0-.84375.839843-.84375 2.210937 0 3.058593 7.820313 7.839844 11.363281 19.027344 9.476563 29.925782-3.207032 18.535156-20.890625 31.003906-39.425782 27.796875-5.46875-.945313-10.460937-3.121094-14.847656-6.460938-.644531-.492187-1.507812-.582031-2.238281-.230469-.734375.347657-1.210937 1.074219-1.234375 1.882813-.394531 12.691406.28125 22.988281 2.058594 31.347656l-21.410156-1.863281c8.199218-23.71875-4.472657-36.214844-15.703126-47.289062-2.394531-2.359376-4.683593-4.621094-6.699218-6.894532-.007813-.003906-.011719-.011718-.015625-.019531-7.882813-8.878906-11.542969-17.898437-.589844-33.632813.683594-.980468.441406-2.328124-.539063-3.011718-.984374-.679688-2.328124-.441406-3.011718.539062-11.421875 16.414063-8.355469 27.160156-1.394532 36.175782-15.410156 2.394531-29.703124-.53125-39.640624-8.21875-7.875-6.09375-12.300782-14.605469-12.796876-24.609376-.050781-1.03125-.820312-1.902343-1.851562-2.03125-24.074219-3.476562-39.238281-14.085937-42.671875-29.855468-3.296875-15.15625 4.847656-32.496094 20.484375-44.519532-1.390625 10.863282 4.644531 18.71875 16.726562 22.011719-7.5 7.269531-10.054687 15.070313-7.59375 23.234375.242188.8125.921876 1.371094 1.703126 1.507813.320312.054687.660156.039062.992187-.0625 1.144531-.34375 1.792969-1.550781 1.445313-2.695313-2.265626-7.511718.824218-14.542968 9.445312-21.503906.664062-.535156.949219-1.410156.734375-2.230469-.214844-.820312-.886719-1.441406-1.722656-1.582031-.074219-.015625-.144531-.023438-.21875-.039062-12.417969-2.148438-18.527344-8.636719-17.203125-18.289063 2.210937-16.097656 25.617187-38.308594 53.300781-37.867187-5.445313 6.183593-9.929687 14.117187-12.796875 23.089843-.363281 1.136719.265625 2.355469 1.402344 2.71875 1.144531.359375 2.355468-.265625 2.71875-1.402343 3.191406-9.996094 8.476562-18.578126 14.804687-24.59375.121094-.09375.230469-.199219.328125-.3125 4.445313-4.140626 9.394532-7.019532 14.492188-8.234376 9.03125-2.152343 18.101562 1.078126 26.230468 9.339844.695313.710938 1.792969.851563 2.652344.339844 8.40625-5.027344 17.070313-6.421875 24.390625-3.945312 7.882813 2.671874 14.324219 9.820312 18.632813 20.671874.378906.953126 1.375 1.511719 2.386718 1.332032 12.382813-2.183594 23.027344-.007813 29.980469 6.121094 6.160157 5.433593 9.320313 13.761718 9.203125 24.164062-4.449218-.617188-9.167968.167969-13.839844 2.425781-1.078124.519531-1.527343 1.8125-1.007812 2.886719.519531 1.078125 1.816406 1.53125 2.890625 1.007812 7.46875-3.605468 14.746094-2.804687 20.5 2.257813 7.644531 6.722656 10.359375 19.296875 6.597656 30.574219-.265625.796875-.050781 1.671875.558594 2.25 5.941406 5.671875 8.273437 12.652344 6.746094 20.179687-2.332031 11.429688-13.273438 22.59375-28.226563 29.023438zm0 0"/><path d="m233.628906 130.820312c-.964844-.703124-2.316406-.496093-3.023437.46875-9.660157 13.183594-23.195313 19.335938-36.222657 16.496094-12.460937-2.734375-21.691406-13.171875-24.695312-27.925781-.238281-1.167969-1.378906-1.925781-2.550781-1.6875s-1.929688 1.382813-1.691407 2.550781c3.089844 15.167969 12.203126 26.273438 24.6875 30.371094-8.992187 4.855469-15.648437 12.304688-19.820312 22.238281-.460938 1.101563.054688 2.371094 1.15625 2.832031.15625.066407.3125.109376.472656.140626.96875.167968 1.964844-.347657 2.363282-1.296876 4.503906-10.726562 12.203124-18.257812 22.871093-22.398437 13.542969 1.429687 27.113281-5.382813 36.921875-18.761719.703125-.964844.496094-2.320312-.46875-3.027344zm0 0"/><path d="m134.179688 177.800781c-6.511719-5.246093-9.890626-10.660156-10.054688-16.097656-.175781-5.957031 3.46875-12.371094 10.835938-19.066406.886718-.804688.953124-2.171875.148437-3.054688-.804687-.886719-2.171875-.949219-3.054687-.148437-7.453126 6.769531-11.527344 13.503906-12.164063 20.046875-11.175781 2.683593-21.339844-.179688-31.011719-8.75-.890625-.792969-2.261718-.710938-3.054687.183593-.792969.894532-.710938 2.261719.183593 3.050782 6.441407 5.707031 13.09375 9.148437 20.085938 10.359375 4.480469.777343 9.105469.625 13.898438-.421875.863281 6.019531 4.707031 11.816406 11.472656 17.265625.296875.238281.636718.386719.988281.445312.75.132813 1.542969-.136719 2.054687-.773437.75-.929688.601563-2.292969-.328124-3.039063zm0 0"/><path d="m213.203125 103.21875c-.808594 6.273438-5.140625 12.339844-12.867187 18.023438-.960938.710937-1.167969 2.066406-.457032 3.027343.34375.46875.839844.757813 1.371094.847657.5625.097656 1.160156-.023438 1.652344-.386719 8.714844-6.417969 13.625-13.464844 14.59375-20.957031.9375-7.265626-1.824219-14.960938-8.210938-22.871094-.746094-.933594-2.109375-1.074219-3.042968-.328125-.929688.753906-1.074219 2.113281-.324219 3.042969 5.617187 6.957031 8.066406 13.554687 7.285156 19.601562zm0 0"/><path d="m259.195312 134c-13.390624-5.382812-19.027343-15.453125-17.230468-30.785156.136718-1.1875-.683594-2.257813-1.898438-2.402344-1.183594-.140625-2.261718.710938-2.398437 1.898438-2.03125 17.296874 4.671875 29.175781 19.914062 35.300781.144531.058593.292969.101562.441407.128906.980468.167969 1.984374-.363281 2.371093-1.328125.449219-1.109375-.089843-2.367188-1.199219-2.8125zm0 0"/><path d="m251.078125 160.070312c-18.769531 6.023438-27.261719 18.175782-25.238281 36.121094.109375.976563.855468 1.730469 1.78125 1.890625.195312.03125.402344.039063.613281.015625 1.183594-.132812 2.039063-1.203125 1.90625-2.390625-1.785156-15.828125 5.5-26.140625 22.261719-31.519531 1.136718-.363281 1.761718-1.582031 1.398437-2.71875-.367187-1.136719-1.589843-1.765625-2.722656-1.398438zm0 0"/><path d="m215.382812 190.390625c-6.238281 4.949219-11.984374 7.148437-17.078124 6.527344-4.574219-.550781-8.925782-3.441407-12.898438-8.582031-.734375-.945313-2.089844-1.117188-3.035156-.390626-.949219.730469-1.121094 2.09375-.390625 3.035157 4.175781 5.402343 8.828125 8.71875 13.859375 9.890625l-4.597656 12.320312c-.417969 1.121094.152343 2.367188 1.269531 2.785156.128906.046876.261719.082032.390625.105469 1.003906.171875 2.023437-.386719 2.394531-1.375l4.984375-13.363281c5.582031-.078125 11.554688-2.613281 17.789062-7.566406.9375-.742188 1.09375-2.105469.351563-3.039063-.746094-.9375-2.105469-1.09375-3.039063-.347656zm0 0"/><path d="m177.832031 96.136719c1.0625.183593 2.121094-.453125 2.4375-1.511719.34375-1.144531-.308593-2.351562-1.453125-2.691406-5.628906-1.6875-9.382812-4.765625-10.574218-8.675782-1.238282-4.050781.238281-8.910156 4.15625-13.675781.757812-.921875.625-2.285156-.296876-3.046875-.925781-.757812-2.285156-.625-3.042968.300782-4.171875 5.074218-6.050782 10.410156-5.457032 15.285156-18.304687 6.246094-32.113281 16.828125-41.03125 31.5-.621093 1.019531-.296874 2.351562.722657 2.972656.242187.144531.496093.238281.753906.28125.851563.148438 1.746094-.226562 2.21875-1.007812 8.34375-13.722657 21.304687-23.65625 38.515625-29.578126 2.070312 4.476563 6.535156 7.914063 12.792969 9.789063.089843.023437.171875.046875.257812.058594zm0 0"/></g><path d="m182.851562 318.15625c-.03125 0-.066406 0-.09375-.003906-3.46875-.136719-6.949218-.433594-10.339843-.878906-54.695313-7.167969-96.417969-52.382813-99.210938-107.507813-.144531-2.839844 1.839844-5.3125 4.617188-5.75.046875-.003906.09375-.011719.140625-.015625.226562-.03125.402344-.039062.578125-.039062 2.03125 0 3.84375 1.359374 4.40625 3.300781 11.96875 40.957031 31.800781 63.1875 60.632812 67.957031-15.039062-7.753906-26.585937-21.992188-28.109375-34.570312-.121094-1.484376.472656-2.820313 1.578125-3.664063 1.113281-.851563 2.558594-1.082031 3.863281-.613281.59375.210937 1.128907.574218 1.589844 1.078125 7.574219 8.21875 16.601563 14.40625 25.328125 20.390625 19.453125 13.332031 37.828125 25.921875 37.355469 58.011718-.007812.628907-.273438 1.230469-.730469 1.664063-.433593.410156-1.007812.640625-1.605469.640625zm-104.367187-109.503906c-.363281.09375-.621094.464844-.601563.875 2.675782 52.871094 42.6875 96.230468 95.144532 103.101562 2.457031.324219 4.964844.566406 7.480468.722656-.488281-27.78125-16.667968-38.871093-35.316406-51.652343-8.429687-5.777344-17.128906-11.742188-24.742187-19.613281 2.253906 10.445312 12.542969 22.414062 25.261719 29.035156 1.546874.808594 2.507812 2.390625 2.507812 4.128906 0 .683594-.148438 1.347656-.441406 1.972656-.886719 1.875-2.925782 2.945313-4.953125 2.609375-30.769531-5.089843-51.816407-28.375-64.339844-71.179687zm0 0" fill="#004aad"/><path d="m192.140625 318.15625c-.597656 0-1.171875-.230469-1.609375-.640625-.457031-.433594-.722656-1.035156-.730469-1.664063-.472656-32.085937 17.902344-44.679687 37.351563-58.011718 8.730468-5.984375 17.757812-12.171875 25.332031-20.390625.460937-.503907.996094-.867188 1.585937-1.078125 1.3125-.472656 2.753907-.238282 3.871094.613281 1.101563.847656 1.695313 2.183594 1.582032 3.570313-1.53125 12.671874-13.078126 26.910156-28.082032 34.71875 28.796875-4.824219 48.628906-27.054688 60.601563-68.015626.625-2.15625 2.765625-3.605468 5.101562-3.246093 2.796875.441406 4.78125 2.914062 4.636719 5.75-2.789062 55.132812-44.515625 100.34375-99.210938 107.511719-3.390624.445312-6.867187.742187-10.335937.878906-.03125 0-.0625.003906-.09375.003906zm62.382813-76.054688c-7.605469 7.863282-16.300782 13.824219-24.722657 19.597657-18.652343 12.78125-34.832031 23.871093-35.320312 51.652343 2.515625-.15625 5.019531-.398437 7.480469-.71875 52.453124-6.875 92.46875-50.234374 95.144531-103.105468.023437-.4375-.269531-.824219-.667969-.886719-12.433594 42.789063-33.484375 66.101563-64.269531 71.191406-2.019531.332031-4.074219-.734375-4.957031-2.601562-.292969-.640625-.441407-1.300781-.441407-1.980469 0-1.742188.960938-3.320312 2.507813-4.128906 12.683594-6.597656 22.949218-18.515625 25.246094-29.019532zm0 0" fill="#004aad"/><g clip-path="url(#a)"><path d="m187.496094 362.085938c-96.269532 0-174.59375-78.320313-174.59375-174.589844 0-96.269532 78.324218-174.59375 174.59375-174.59375 96.269531 0 174.589844 78.324218 174.589844 174.59375 0 96.269531-78.320313 174.589844-174.589844 174.589844zm0-343.835938c-93.320313 0-169.246094 75.925781-169.246094 169.246094 0 93.320312 75.925781 169.242187 169.246094 169.242187 93.320312 0 169.246094-75.921875 169.246094-169.242187-.003907-93.320313-75.925782-169.246094-169.246094-169.246094zm0 0" fill="#004aad"/></g><path d="m65.101562 178.972656h-10.839843v-10.839844h-5.6875v10.839844h-10.839844v5.6875h10.839844v10.835938h5.6875v-10.835938h10.839843zm0 0" fill="#38b6ff"/><path d="m160.914062 235.671875h-7.609374v-7.609375h-3.992188v7.609375h-7.609375v3.992187h7.609375v7.605469h3.992188v-7.605469h7.609374zm0 0" fill="#38b6ff"/><path d="m78.875 271.03125h-7.609375v-7.609375h-3.992187v7.609375h-7.609376v3.992188h7.609376v7.609374h3.992187v-7.609374h7.609375zm0 0" fill="#38b6ff"/></svg>